<svg viewBox="0 0 90 90" fill="none" xmlns="http://www.w3.org/2000/svg">
<rect width="90" height="90" fill="#00FFA9"/>
<path d="M55.6176 46.3358C47.6762 43.7146 34.6779 43.7902 34.6779 39.3039C34.6779 36.355 39.2952 33.9657 45.0038 33.9657C50.7123 33.9657 55.3296 36.355 55.3296 39.3039V43.76C60.9321 41.8848 64.6654 38.5175 64.6654 34.6764C64.6654 28.7787 55.8601 24 44.9987 24C34.1373 24 25.3371 28.7837 25.3371 34.6815C25.3371 38.452 28.9491 41.7487 34.3849 43.6692C44.9987 47.4196 55.3246 46.3358 55.3246 50.7012C55.3246 53.65 50.7022 56.0394 44.9987 56.0394C39.2952 56.0394 34.6728 53.65 34.6728 50.7012V46.24C29.0653 48.1203 25.332 51.4875 25.332 55.3236C25.332 61.2213 34.1373 66 44.9936 66C55.85 66 64.6654 61.2213 64.6654 55.3236C64.6654 51.553 61.0887 48.1404 55.6176 46.3358Z" fill="#0E0E0E"/>
</svg>
