<svg width="25" height="31" viewBox="0 0 25 31" fill="none" xmlns="http://www.w3.org/2000/svg">
<path d="M8.83854 2.55925L1.58646 23.249C0.811276 25.4606 2.45258 27.7751 4.79606 27.7751H14.4216C15.9487 27.7751 17.2886 26.7572 17.6981 25.286L23.4571 4.59627C24.0604 2.42873 22.4306 0.283203 20.1806 0.283203H12.0481C10.6035 0.283203 9.31641 1.19589 8.83854 2.55925Z" stroke="#04251A" stroke-width="0.566843"/>
<path fill-rule="evenodd" clip-rule="evenodd" d="M8.74043 2.74892C9.25813 1.27194 10.6524 0.283203 12.2175 0.283203H20.35C22.7874 0.283203 24.5531 2.60753 23.8995 4.9557L18.1405 25.6455C17.6969 27.2392 16.2453 28.3419 14.591 28.3419H4.96542C2.42666 28.3419 0.648572 25.8345 1.48835 23.4387L8.74043 2.74892ZM8.78714 3.68426C9.30484 2.20729 10.3397 0.566624 11.9048 0.566624H20.9743C23.4117 0.566624 24.5531 4.8749 23.8995 7.22307L18.7073 27.9128C18.2637 29.5066 16.8121 30.6093 15.1578 30.6093H4.96536C2.4266 30.6093 0.494057 26.5824 1.33384 24.1865L8.78714 3.68426Z" fill="#04251A"/>
<path d="M6.80273 26.3594H11.9043" stroke="#04251A" stroke-width="0.566843" stroke-linecap="round"/>
<path d="M17.9195 1.41797H13.6713C13.4566 1.41797 13.2603 1.53927 13.1643 1.73131L12.8809 2.29815C12.6924 2.67505 12.9665 3.1185 13.3879 3.1185H17.7306C17.9746 3.1185 18.1912 2.96237 18.2683 2.73091L18.4573 2.16406C18.5796 1.79701 18.3064 1.41797 17.9195 1.41797Z" fill="#04251A"/>
<path d="M16.4395 23.5242L21.8245 4.81836" stroke="#04251A" stroke-width="0.566843" stroke-linecap="round"/>
<path d="M9.61986 4.9129C9.67208 4.76534 9.59478 4.60339 9.44722 4.55117C9.29966 4.49896 9.1377 4.57625 9.08549 4.72382L9.35268 4.81836L9.61986 4.9129ZM2.83398 23.2407L3.10117 23.3353L9.61986 4.9129L9.35268 4.81836L9.08549 4.72382L2.5668 23.1462L2.83398 23.2407Z" fill="#04251A"/>
<path d="M14.3103 23.5235H5.10156C5.47946 23.0511 7.08551 22.1064 7.08551 22.1064L9.06946 18.1385L9.54659 19.7289C9.68876 20.2028 10.3273 20.2799 10.5781 19.8535L12.7539 16.1546V18.1589C12.7539 18.7641 13.5753 18.9481 13.8335 18.4007L19.8395 5.66797L14.8554 23.1124C14.7858 23.3557 14.5634 23.5235 14.3103 23.5235Z" fill="#04251A"/>
<path d="M7.93555 15.0207H14.1708M9.63608 11.0528H15.8713M11.3366 5.95117H18.4221" stroke="#04251A" stroke-width="0.566843" stroke-linecap="round"/>
</svg>
