<svg width="25" height="19" viewBox="0 0 25 19" fill="none" xmlns="http://www.w3.org/2000/svg">
<path d="M7.1565 15.192C6.36717 15.192 5.64183 15.0373 4.9805 14.728C4.32983 14.4187 3.8445 14.0773 3.5245 13.704H3.4125V15H1.1725V3.48H3.4125V7.368H3.5245C3.8445 6.984 4.32983 6.64267 4.9805 6.344C5.64183 6.03467 6.3725 5.88 7.1725 5.88C8.1005 5.88 8.9165 6.07733 9.6205 6.472C10.3245 6.856 10.8685 7.4 11.2525 8.104C11.6472 8.808 11.8445 9.61867 11.8445 10.536C11.8445 11.4533 11.6472 12.264 11.2525 12.968C10.8685 13.672 10.3192 14.2213 9.6045 14.616C8.9005 15 8.0845 15.192 7.1565 15.192ZM6.3245 13.464C7.3165 13.464 8.1005 13.1973 8.6765 12.664C9.2525 12.1307 9.5405 11.4213 9.5405 10.536C9.5405 9.65067 9.2525 8.94133 8.6765 8.408C8.11117 7.87467 7.3325 7.608 6.3405 7.608C5.7005 7.608 5.11383 7.752 4.5805 8.04C4.05783 8.31733 3.6685 8.632 3.4125 8.984V12.088C3.6685 12.44 4.05783 12.76 4.5805 13.048C5.10317 13.3253 5.6845 13.464 6.3245 13.464ZM23.1613 10.92H15.1293C15.2253 11.6667 15.5933 12.264 16.2333 12.712C16.8839 13.1493 17.7639 13.368 18.8733 13.368C19.5773 13.368 20.2439 13.272 20.8733 13.08C21.5133 12.8773 22.0039 12.6587 22.3453 12.424V14.296C21.9719 14.52 21.4386 14.728 20.7453 14.92C20.0626 15.1013 19.3213 15.192 18.5213 15.192C17.3266 15.192 16.2973 14.9947 15.4333 14.6C14.5799 14.1947 13.9293 13.64 13.4813 12.936C13.0439 12.232 12.8253 11.432 12.8253 10.536C12.8253 9.64 13.0333 8.84 13.4493 8.136C13.8759 7.432 14.4839 6.88267 15.2733 6.488C16.0733 6.08267 17.0066 5.88 18.0733 5.88C19.0973 5.88 19.9933 6.08267 20.7613 6.488C21.5293 6.88267 22.1213 7.432 22.5373 8.136C22.9533 8.84 23.1613 9.64 23.1613 10.536V10.92ZM18.0893 7.416C17.2466 7.416 16.5586 7.64533 16.0253 8.104C15.4919 8.56267 15.1933 9.144 15.1293 9.848H20.8893C20.8573 9.42133 20.7239 9.02133 20.4893 8.648C20.2546 8.27467 19.9293 7.976 19.5133 7.752C19.1079 7.528 18.6333 7.416 18.0893 7.416Z" fill="#0E0E0E"/>
</svg>
