<svg width="25" height="19" viewBox="0 0 25 19" fill="none" xmlns="http://www.w3.org/2000/svg">
<g clip-path="url(#clip0_23460_1958)">
<path d="M5.52 15.192C4.592 15.192 3.77067 15 3.056 14.616C2.352 14.2213 1.80267 13.672 1.408 12.968C1.024 12.264 0.832 11.4533 0.832 10.536C0.832 9.61867 1.024 8.808 1.408 8.104C1.80267 7.4 2.352 6.856 3.056 6.472C3.76 6.07733 4.576 5.88 5.504 5.88C6.29333 5.88 7.01867 6.03467 7.68 6.344C8.34133 6.65333 8.832 6.99467 9.152 7.368H9.264V3.48H11.504V15H9.264V13.704H9.152C8.832 14.0773 8.34133 14.4187 7.68 14.728C7.02933 15.0373 6.30933 15.192 5.52 15.192ZM6.352 13.464C6.98133 13.464 7.55733 13.3253 8.08 13.048C8.61333 12.76 9.008 12.44 9.264 12.088V8.984C9.008 8.632 8.61333 8.31733 8.08 8.04C7.55733 7.752 6.976 7.608 6.336 7.608C5.344 7.608 4.56 7.87467 3.984 8.408C3.41867 8.94133 3.136 9.65067 3.136 10.536C3.136 11.4213 3.41867 12.1307 3.984 12.664C4.56 13.1973 5.34933 13.464 6.352 13.464ZM13.265 18.04V6.072H15.505V7.368H15.617C15.937 6.984 16.4223 6.64267 17.073 6.344C17.7343 6.03467 18.465 5.88 19.265 5.88C20.193 5.88 21.009 6.07733 21.713 6.472C22.417 6.856 22.961 7.4 23.345 8.104C23.7397 8.808 23.937 9.61867 23.937 10.536C23.937 11.4533 23.7397 12.264 23.345 12.968C22.961 13.672 22.417 14.2213 21.713 14.616C21.009 15 20.193 15.192 19.265 15.192C18.465 15.192 17.7343 15.0427 17.073 14.744C16.4223 14.4347 15.937 14.088 15.617 13.704H15.505V18.04H13.265ZM18.433 13.464C19.425 13.464 20.2037 13.1973 20.769 12.664C21.345 12.1307 21.633 11.4213 21.633 10.536C21.633 9.65067 21.345 8.94133 20.769 8.408C20.2037 7.87467 19.425 7.608 18.433 7.608C17.793 7.608 17.2063 7.752 16.673 8.04C16.1503 8.31733 15.761 8.632 15.505 8.984V12.088C15.761 12.44 16.1503 12.76 16.673 13.048C17.2063 13.3253 17.793 13.464 18.433 13.464Z" fill="#0E0E0E"/>
</g>
<defs>
<clipPath id="clip0_23460_1958">
<rect width="25" height="19" fill="white"/>
</clipPath>
</defs>
</svg>
