<svg width="69" height="56" viewBox="0 0 69 56" fill="none" xmlns="http://www.w3.org/2000/svg">
<path d="M59.9557 35.5022L43.2676 51.864M59.9557 35.5022L67.339 5.21764L27.7931 0.746094L18.3871 30.6241M59.9557 35.5022L18.3871 30.6241M59.9557 35.5022V39.0591L43.2676 55.2176M43.2676 51.864L0.6875 44.8518M43.2676 51.864V55.2176M0.6875 44.8518L18.3871 30.6241M0.6875 44.8518V47.7989L43.2676 55.2176M18.1061 44.3929L31.6083 46.6287M26.8829 42.7176L19.1456 41.4473M26.8829 42.7176L35.4292 43.9879M26.8829 42.7176L34.0638 35.6038M19.1456 41.4473L11.5382 40.2786L16.4915 35.6038M19.1456 41.4473L26.0737 34.4791M35.4292 43.9879L44.5824 45.4615L49.7666 40.4818M35.4292 43.9879L43.1664 36.7691M26.0737 34.4791L19.2973 33.5713L16.4915 35.6038M26.0737 34.4791L34.0638 35.6038M34.0638 35.6038L43.1664 36.7691M43.1664 36.7691L52.6736 38.0428L49.7666 40.4818M49.7666 40.4818L16.4915 35.6038M63.0911 7.65666L56.7193 32.0469L22.4327 27.677L29.8159 3.8965L63.0911 7.65666Z" stroke="black" stroke-width="1.37426" stroke-linecap="round"/>
</svg>
