<svg viewBox="0 0 38 31" fill="none" xmlns="http://www.w3.org/2000/svg">
<path d="M32.584 19.2954L23.5144 28.1877M32.584 19.2954L36.5967 2.83644L15.1044 0.40625L9.99237 16.6443M32.584 19.2954L9.99237 16.6443M32.584 19.2954V21.2285L23.5144 30.0103M23.5144 28.1877L0.373047 24.3767M23.5144 28.1877V30.0103M0.373047 24.3767L9.99237 16.6443M0.373047 24.3767V25.9784L23.5144 30.0103M9.83965 24.1274L17.1778 25.3425M14.6096 23.2169L10.4046 22.5265M14.6096 23.2169L19.2544 23.9073M14.6096 23.2169L18.5123 19.3507M10.4046 22.5265L6.27017 21.8913L8.96216 19.3507M10.4046 22.5265L14.1699 18.7394M19.2544 23.9073L24.229 24.7081L27.0465 22.0018M19.2544 23.9073L23.4594 19.984M14.1699 18.7394L10.4871 18.246L8.96216 19.3507M14.1699 18.7394L18.5123 19.3507M18.5123 19.3507L23.4594 19.984M23.4594 19.984L28.6264 20.6762L27.0465 22.0018M27.0465 22.0018L8.96216 19.3507M34.288 4.16199L30.8251 17.4176L12.1911 15.0426L16.2037 2.11843L34.288 4.16199Z" stroke="black" stroke-width="0.746879" stroke-linecap="round"/>
</svg>
