<svg width="33" height="33" viewBox="0 0 33 33" fill="none" xmlns="http://www.w3.org/2000/svg">
<path d="M23.6649 19.7757C23.7968 18.688 23.8956 17.6004 23.8956 16.4797C23.8956 15.3591 23.7968 14.2715 23.6649 13.1838H29.2351C29.4987 14.2385 29.6635 15.3426 29.6635 16.4797C29.6635 17.6168 29.4987 18.721 29.2351 19.7757M20.748 28.9384C21.7368 27.1092 22.4949 25.1316 23.0222 23.0716H27.8837C26.2871 25.8209 23.7541 27.9035 20.748 28.9384ZM20.336 19.7757H12.6235C12.4587 18.688 12.3598 17.6004 12.3598 16.4797C12.3598 15.3591 12.4587 14.255 12.6235 13.1838H20.336C20.4843 14.255 20.5997 15.3591 20.5997 16.4797C20.5997 17.6004 20.4843 18.688 20.336 19.7757ZM16.4797 29.5976C15.1119 27.6201 14.0078 25.4282 13.3321 23.0716H19.6274C18.9517 25.4282 17.8476 27.6201 16.4797 29.5976ZM9.88785 9.88785H5.07576C6.65593 7.13114 9.18712 5.04525 12.195 4.02106C11.2062 5.85031 10.4646 7.82788 9.88785 9.88785ZM5.07576 23.0716H9.88785C10.4646 25.1316 11.2062 27.1092 12.195 28.9384C9.19343 27.903 6.6658 25.82 5.07576 23.0716ZM3.72442 19.7757C3.46075 18.721 3.29595 17.6168 3.29595 16.4797C3.29595 15.3426 3.46075 14.2385 3.72442 13.1838H9.29458C9.16274 14.2715 9.06386 15.3591 9.06386 16.4797C9.06386 17.6004 9.16274 18.688 9.29458 19.7757M16.4797 3.34539C17.8476 5.32296 18.9517 7.53124 19.6274 9.88785H13.3321C14.0078 7.53124 15.1119 5.32296 16.4797 3.34539ZM27.8837 9.88785H23.0222C22.5064 7.84676 21.7427 5.87651 20.748 4.02106C23.7803 5.05928 26.3017 7.15221 27.8837 9.88785ZM16.4797 0C7.36645 0 0 7.41588 0 16.4797C0 20.8504 1.73625 25.0421 4.82681 28.1327C6.35709 29.663 8.1738 30.8769 10.1732 31.705C12.1726 32.5332 14.3156 32.9595 16.4797 32.9595C20.8504 32.9595 25.0421 31.2232 28.1327 28.1327C31.2232 25.0421 32.9595 20.8504 32.9595 16.4797C32.9595 14.3156 32.5332 12.1726 31.705 10.1732C30.8769 8.1738 29.663 6.35709 28.1327 4.82681C26.6024 3.29652 24.7857 2.08263 22.7863 1.25445C20.7869 0.426261 18.6439 0 16.4797 0Z" fill="#04251A"/>
</svg>
