<svg width="25" height="19" viewBox="0 0 25 19" fill="none" xmlns="http://www.w3.org/2000/svg">
<path d="M7.832 15.192C6.82933 15.192 6.04533 14.9093 5.48 14.344C4.91467 13.7787 4.632 12.9627 4.632 11.896V7.112H3V6.072H3.864C4.14133 6.072 4.33867 6.01333 4.456 5.896C4.57333 5.768 4.632 5.54933 4.632 5.24V3.976H6.872V6.072H9.576V7.112H6.872V11.768C6.872 12.2693 7.00533 12.6533 7.272 12.92C7.53867 13.1867 7.896 13.32 8.344 13.32C8.74933 13.32 9.16 13.256 9.576 13.128V14.936C9.26667 15.032 8.984 15.096 8.728 15.128C8.472 15.1707 8.17333 15.192 7.832 15.192ZM15.2841 18.232C14.4308 18.232 13.6255 18.1413 12.8681 17.96C12.1108 17.7893 11.5295 17.5973 11.1241 17.384V15.464C11.5081 15.7093 12.0521 15.928 12.7561 16.12C13.4601 16.312 14.2015 16.408 14.9801 16.408C16.1535 16.408 17.0495 16.136 17.6681 15.592C18.2975 15.0587 18.6121 14.3387 18.6121 13.432V13.016H18.5001C18.2015 13.3893 17.7215 13.7307 17.0601 14.04C16.4095 14.3493 15.6788 14.504 14.8681 14.504C13.9295 14.504 13.1081 14.3227 12.4041 13.96C11.7001 13.5867 11.1561 13.0747 10.7721 12.424C10.3988 11.7733 10.2121 11.0267 10.2121 10.184C10.2121 9.352 10.3988 8.61067 10.7721 7.96C11.1561 7.30933 11.7001 6.80267 12.4041 6.44C13.1081 6.06667 13.9241 5.88 14.8521 5.88C15.6735 5.88 16.4095 6.03467 17.0601 6.344C17.7215 6.65333 18.2015 6.99467 18.5001 7.368H18.6121V6.072H20.8521V13.432C20.8521 14.4027 20.6388 15.2453 20.2121 15.96C19.7855 16.6853 19.1561 17.2453 18.3241 17.64C17.4921 18.0347 16.4788 18.232 15.2841 18.232ZM15.5881 12.84C16.2495 12.84 16.8521 12.696 17.3961 12.408C17.9508 12.1093 18.3561 11.784 18.6121 11.432V8.952C18.3561 8.58933 17.9508 8.264 17.3961 7.976C16.8521 7.688 16.2388 7.544 15.5561 7.544C14.5748 7.544 13.8228 7.77867 13.3001 8.248C12.7775 8.71733 12.5161 9.36267 12.5161 10.184C12.5161 11.0053 12.7775 11.656 13.3001 12.136C13.8335 12.6053 14.5961 12.84 15.5881 12.84Z" fill="#0E0E0E"/>
</svg>
