<svg width="145" height="24" viewBox="0 0 145 24" fill="none" xmlns="http://www.w3.org/2000/svg">
<g clip-path="url(#clip0_5889_38740)">
<path d="M6.65956 11.0007C6.65956 11.7753 6.74532 12.4435 6.92793 12.9953C7.10639 13.5514 7.42179 14.0668 7.87969 14.5531C8.34036 15.0321 9.01268 15.399 9.89667 15.6494C10.7834 15.9027 11.8831 16.0279 13.1988 16.0279H23V22H13.1669C8.69035 22 5.37302 20.9823 3.22326 18.9499C1.0735 16.9189 0 14.2677 0 10.9993C0 7.73224 1.0735 5.08106 3.22326 3.04718C5.37302 1.01621 8.69035 0 13.1669 0H23V5.97206H13.1988C10.6879 5.97206 8.97117 6.41174 8.04846 7.2911C7.12299 8.17046 6.65956 9.408 6.65956 11.0007Z" fill="#ABABAB"/>
<path d="M44.2303 23H41.7711C39.3626 23 37.2632 22.6981 35.4617 22.1032C33.6631 21.5039 32.2269 20.6767 31.1561 19.6143C30.0812 18.5474 29.2886 17.3428 28.7729 15.9859C28.2558 14.6349 28 13.1388 28 11.4992C28 9.86116 28.2558 8.36511 28.7729 7.01408C29.2886 5.65715 30.0812 4.44966 31.1561 3.38571C32.2269 2.32176 33.6631 1.49012 35.4617 0.895258C37.2632 0.298912 39.3626 0 41.7711 0H44.2303C46.6346 0 48.7369 0.298912 50.5398 0.895258C52.337 1.49012 53.7759 2.32176 54.8467 3.38571C55.9161 4.44966 56.7142 5.65715 57.2257 7.01408C57.7429 8.36511 58 9.86116 58 11.4992C58 13.1374 57.7442 14.6349 57.2257 15.9859C56.7142 17.3428 55.9175 18.5474 54.8467 19.6143C53.7759 20.6782 52.337 21.5054 50.5398 22.1032C48.7369 22.6967 46.6346 23 44.2303 23ZM41.8021 16.93H44.198C46.8692 16.93 48.7031 16.455 49.7036 15.5079C50.707 14.5609 51.2072 13.2261 51.2072 11.5008C51.2072 9.77529 50.6999 8.44058 49.6924 7.49057C48.6792 6.545 46.8482 6.07 44.198 6.07H41.8273C40.439 6.07 39.2572 6.2017 38.2975 6.47101C37.3391 6.73589 36.6042 7.13247 36.0997 7.65187C35.5952 8.17571 35.2398 8.74393 35.0388 9.35951C34.835 9.97958 34.7339 10.6927 34.7339 11.5022C34.7339 13.2291 35.2467 14.5624 36.2655 15.5094C37.2871 16.455 39.1336 16.93 41.8021 16.93Z" fill="#ABABAB"/>
<path d="M68.284 0V16.0276H83V22H62V0H68.284Z" fill="#ABABAB"/>
<path d="M125.864 22V15.3665L113 0H122.228L129.022 10.042L135.765 0H145L132.128 15.3665V22H125.864Z" fill="#ABABAB"/>
<path d="M108.813 3.04739C106.69 1.01628 103.414 0 98.9909 0H89V5.94772H91.9459V5.97247H98.9595C101.419 5.97247 103.104 6.41218 104.021 7.2916C104.935 8.16811 105.392 9.40714 105.392 11C105.392 11.7746 105.305 12.4429 105.127 12.9947C104.951 13.5509 104.636 14.0664 104.182 14.5526C103.729 15.0316 103.066 15.3985 102.19 15.649C101.318 15.9023 100.242 16.0276 98.9595 16.0276H91.9459H97.6319H89V22H98.9909C103.414 22 106.69 20.9823 108.813 18.9497C110.936 16.9187 112 14.2673 112 10.9985C112 7.73277 110.936 5.08287 108.813 3.04739Z" fill="#ABABAB"/>
</g>
<defs>
<clipPath id="clip0_5889_38740">
<rect width="145" height="24" fill="white"/>
</clipPath>
</defs>
</svg>
