<svg width="150" height="41" viewBox="0 0 150 41" fill="none" xmlns="http://www.w3.org/2000/svg">
<path d="M118.123 12.0065L123.5 8H105.5V32H123.5V27.9935H110.643V21.8658H121.63V17.8592H110.643V12.0065H118.123Z" fill="#ABABAB"/>
<path d="M92.1578 17.3486H85.77V12.0065H95.9905L101.5 8H80.5V32H91.4791C97.6274 32 101.181 29.2504 101.181 24.4583C101.181 19.8625 97.9867 17.3486 92.1578 17.3486ZM91.2795 27.9935H85.77V21.3552H91.2795C94.6331 21.3552 96.1901 22.455 96.1901 24.6939C96.1901 26.9329 94.5133 27.9935 91.2795 27.9935Z" fill="#ABABAB"/>
<path d="M139.305 8H129.5V32H134.656V25.2046H139.344C145.594 25.2046 149.5 21.9051 149.5 16.6023C149.5 11.2995 145.594 8 139.305 8ZM139.187 21.198H134.617V12.0065H139.187C142.508 12.0065 144.305 13.6563 144.305 16.6023C144.305 19.5483 142.508 21.198 139.187 21.198Z" fill="#ABABAB"/>
<path d="M70.9747 27.4152C69.5975 28.1727 68.0628 28.5713 66.4888 28.5713C61.8062 28.5713 58.4221 25.1827 58.4221 20.5182C58.4221 15.8538 61.8062 12.4651 66.4888 12.4651C68.1809 12.4252 69.8336 12.9834 71.2108 13.98L74.9491 11.1894L74.713 10.9502C72.5487 8.99667 69.6368 8 66.3314 8C62.7506 8 59.4845 9.23587 57.1235 11.4684C54.7625 13.7807 53.4246 17.0099 53.5033 20.3588C53.4639 23.7474 54.7625 27.0165 57.1235 29.4085C59.6026 31.7607 62.908 33.0763 66.2921 32.9966C70.0303 32.9966 73.2964 31.681 75.5 29.2889L72.1552 26.7773L70.9747 27.4152Z" fill="#ABABAB"/>
<path d="M37.0823 8C38.0335 9.19231 38.8262 10.5 39.5 11.8846L21.189 25L13.5 20.3077V14.6923L21.1494 19.3462L37.0823 8Z" fill="#ABABAB"/>
<path fill-rule="evenodd" clip-rule="evenodd" d="M36 20.5C36 29.0604 29.0604 36 20.5 36C11.9396 36 5 29.0604 5 20.5C5 11.9396 11.9396 5 20.5 5C23.5394 5 26.3745 5.87484 28.7672 7.38645L33.1029 4.33045C29.6263 1.61686 25.252 0 20.5 0C9.17816 0 0 9.17816 0 20.5C0 31.8218 9.17816 41 20.5 41C31.8218 41 41 31.8218 41 20.5C41 19.0141 40.8419 17.5652 40.5417 16.1691L35.9614 19.3975C35.987 19.7617 36 20.1293 36 20.5Z" fill="#ABABAB"/>
</svg>
