<svg width="70" height="70" viewBox="0 0 70 70" fill="none" xmlns="http://www.w3.org/2000/svg">
<path d="M36.4004 0C52.2393 3.36438e-10 60.1585 0.000333466 65.0791 4.9209C69.9997 9.84146 70 17.7607 70 33.5996V36.4004C70 52.2393 69.9997 60.1585 65.0791 65.0791C60.1585 69.9997 52.2393 70 36.4004 70H33.5996C17.7607 70 9.84146 69.9997 4.9209 65.0791C0.000333469 60.1585 3.36491e-10 52.2393 0 36.4004V33.5996C3.36438e-10 17.7607 0.000333466 9.84146 4.9209 4.9209C9.84146 0.000333074 17.7607 3.29989e-10 33.5996 0H36.4004ZM11.8115 21.292C12.1907 39.4919 21.291 50.4297 37.2451 50.4297H38.1494V40.0166C44.0118 40.6 48.4445 44.8881 50.2236 50.4297H58.5078C56.2328 42.1464 50.2529 37.5664 46.5195 35.8164C50.2528 33.6581 55.5026 28.4085 56.7568 21.292H49.2324C47.5991 27.0669 42.7577 32.3166 38.1494 32.8125V21.292H30.624V41.4756C25.9574 40.3089 20.0662 34.6502 19.8037 21.292H11.8115Z" fill="#B5B5B5"/>
</svg>
